<?xml version="1.0" standalone="no"?>
<!DOCTYPE svg PUBLIC "-//W3C//DTD SVG 20010904//EN"
 "http://www.w3.org/TR/2001/REC-SVG-20010904/DTD/svg10.dtd">
<svg version="1.0" xmlns="http://www.w3.org/2000/svg"
 width="512.000000pt" height="512.000000pt" viewBox="0 0 512.000000 512.000000"
 preserveAspectRatio="xMidYMid meet">
<metadata>
Created by potrace 1.14, written by Peter Selinger 2001-2017
</metadata>
<g transform="translate(0.000000,512.000000) scale(0.100000,-0.100000)"
fill="#000000" stroke="none">
<path d="M2405 5114 c-730 -61 -1333 -363 -1792 -898 -394 -460 -607 -1039
-607 -1656 0 -772 329 -1470 929 -1974 100 -84 301 -219 425 -285 533 -283
1165 -367 1760 -235 880 196 1596 849 1873 1710 138 429 159 900 61 1344 -143
644 -532 1206 -1089 1575 -322 214 -686 348 -1080 400 -122 16 -389 26 -480
19z m1115 -1393 l0 -199 140 -4 c118 -2 142 -6 157 -21 17 -17 18 -81 21
-1200 2 -831 -1 -1190 -9 -1208 -5 -15 -22 -31 -35 -38 -18 -8 -313 -11 -1064
-11 l-1040 0 0 1234 0 1233 -59 7 c-104 12 -180 82 -189 176 -7 72 4 112 43
157 67 78 -14 73 1068 73 l967 0 0 -199z"/>
</g>
</svg>
